PathFileType	4	(X/Y/Z)	D:\TRACE\v60_Jaco2_6-2-23\BothDRS_Motion3_6-platform.trc
DataRate	CameraRate	NumFrames	NumMarkers	Units	OrigDataRate	OrigDataStartFrame	OrigNumFrames
100.00	100.00	      60	5	mm	100.00	2626	      7000
Frame#	Time	Left_Front			Right_Front			Left_Aft			Right_Aft			Post			
		X1	Y1	Z1	X2	Y2	Z2	X3	Y3	Z3	X4	Y4	Z4	X5	Y5	Z5	

2626	26.250	-789.84802	75.21606	-632.27643	780.57019	72.70303	-609.17389	-720.75104	-34.32755	499.04828	693.55530	-45.52771	601.54889	3.79034	1397.90308	-815.46313	
2627	26.260	-789.98138	74.91283	-631.74683	780.31030	72.82723	-609.19971	-720.92798	-34.33762	498.99606	693.01770	-45.54095	601.57062	3.45469	1397.84729	-815.45886	
2628	26.270	-790.22443	75.00779	-631.81891	780.04626	72.92496	-609.22827	-721.33820	-34.33014	498.96704	692.81006	-45.56156	601.54211	3.02809	1397.79626	-815.71014	
2629	26.280	-790.52625	75.08359	-631.88763	779.62671	72.85317	-609.22717	-721.83154	-34.32326	499.04736	692.57886	-45.46536	601.48615	2.60356	1397.62109	-815.98553	
2630	26.290	-791.29553	74.99953	-631.95685	779.26263	72.70782	-609.24158	-722.20044	-34.35315	499.13315	692.20575	-45.46972	601.41089	2.37453	1397.57947	-815.92303	
2631	26.300	-791.72479	75.08515	-631.82880	778.76947	72.62082	-609.26001	-722.41608	-34.41612	499.15536	691.77234	-45.36360	601.40399	2.18209	1397.43738	-815.92834	
2632	26.310	-792.00226	74.89680	-631.77802	778.41602	72.58284	-609.30603	-722.75427	-34.36452	499.13223	691.51135	-45.30480	601.43408	1.89110	1397.40784	-815.98029	
2633	26.320	-792.39362	74.80235	-631.92188	778.11487	72.47944	-609.39117	-722.95514	-34.27267	499.14371	691.25940	-45.21006	601.36414	1.55564	1397.42688	-816.08289	
2634	26.330	-792.74963	74.75061	-632.30298	777.88324	72.35553	-609.43927	-723.16040	-34.29449	499.27856	690.79395	-45.14769	601.34692	1.26063	1397.44507	-816.12531	
2635	26.340	-793.00836	74.75054	-632.54169	777.69281	72.32577	-609.47284	-723.62878	-34.02341	499.05978	690.42346	-45.16191	601.39941	0.81095	1397.22107	-816.47345	
2636	26.350	-793.08344	74.41840	-632.16809	777.40881	72.22303	-609.47388	-723.98590	-33.96311	499.03729	690.04913	-45.15672	601.35437	0.39936	1397.03540	-816.69928	
2637	26.360	-793.30798	74.41006	-632.14502	777.10205	72.08711	-609.47357	-723.87891	-33.99734	499.11804	689.65845	-45.08143	601.40894	0.15437	1396.91638	-817.01654	
2638	26.370	-793.52576	74.42166	-632.20636	776.78442	71.97766	-609.56281	-724.35999	-33.95759	499.05170	689.37726	-45.05499	601.34467	-0.33943	1396.79053	-817.48444	
2639	26.380	-793.68518	74.28146	-632.20300	776.56055	71.96217	-609.60370	-724.69159	-33.85829	498.96844	689.26111	-44.81249	601.39716	-0.74059	1396.63086	-817.99609	
2640	26.390	-794.24255	74.03451	-632.47852	776.17957	71.84780	-609.65564	-725.00952	-33.76457	499.19647	689.00592	-45.19797	601.13684	-0.93977	1396.53540	-818.16736	
2641	26.400	-794.48035	73.95291	-632.55182	775.90552	71.71619	-609.68433	-725.52777	-33.42929	498.81757	688.95111	-44.66523	601.31683	-1.07831	1396.30310	-818.28839	
2642	26.410	-794.77643	73.79211	-632.61737	775.55322	71.52568	-609.74872	-725.85736	-33.35058	498.81992	688.31476	-44.59195	601.32611	-1.43428	1396.07324	-818.64984	
2643	26.420	-795.00079	73.67329	-632.56342	775.31909	71.42300	-609.81378	-726.11932	-33.19767	498.75934	688.16632	-44.34473	601.20459	-1.56303	1396.02991	-818.84454	
2644	26.430	-795.53424	73.88970	-632.25458	775.09064	71.23502	-609.90375	-726.47363	-32.93594	498.75266	687.70935	-44.58267	600.49841	-1.69299	1395.79590	-819.10626	
2645	26.440	-795.96643	73.84312	-632.34534	774.90436	71.07948	-609.97723	-726.49438	-32.84596	498.77463	687.68060	-44.53051	600.47485	-2.00142	1395.39856	-819.43079	
2646	26.450	-796.11115	73.48783	-632.71820	774.66150	70.83658	-610.05127	-726.85272	-32.55364	498.62396	687.56909	-44.39170	600.47833	-2.08381	1395.04065	-819.79962	
2647	26.460	-796.41479	73.21506	-632.85632	774.45294	70.60149	-610.07965	-726.68085	-32.91532	498.77924	687.43848	-43.67027	601.10669	-2.21782	1394.79382	-820.13605	
2648	26.470	-796.67230	73.02539	-632.99591	774.32385	70.45252	-610.13379	-727.11023	-32.62744	498.96329	687.20386	-43.50163	601.06720	-2.34512	1394.51636	-820.84015	
2649	26.480	-796.76410	72.82600	-633.20782	774.20282	70.28831	-610.16937	-727.22681	-32.34605	498.67978	687.04523	-43.31736	601.03937	-2.45953	1394.27783	-821.43176	
2650	26.490	-796.91840	72.60850	-633.37384	774.00488	70.03904	-610.25549	-727.28619	-32.20353	498.56335	686.64014	-43.08701	600.49969	-2.74108	1394.19702	-822.16901	
2651	26.500	-797.04749	72.32752	-633.33752	773.78931	69.77151	-610.42041	-727.49493	-32.11512	498.59869	686.41187	-42.99141	600.44257	-2.95272	1393.85229	-822.79071	
2652	26.510	-797.12231	71.95718	-633.35986	773.54517	69.58813	-610.56171	-727.70764	-31.90877	498.55075	686.36859	-42.87255	600.59235	-3.00883	1393.33264	-823.73395	
2653	26.520	-796.88068	71.32694	-632.82367	773.31757	69.20691	-610.76245	-727.82581	-31.60151	498.48822	686.40820	-42.36741	600.95410	-3.13547	1392.94006	-824.24854	
2654	26.530	-797.07550	70.96506	-633.15601	773.21924	68.88286	-610.79425	-727.95001	-31.34432	498.37164	686.27991	-42.11939	600.88861	-3.42615	1392.61194	-824.84515	
2655	26.540	-797.45911	70.56053	-633.72241	773.10602	68.67947	-610.85114	-728.10309	-31.09829	498.31543	686.00372	-42.25669	600.42065	-3.31487	1392.09607	-825.73889	
2656	26.550	-797.51654	70.25942	-633.77618	773.00964	68.34070	-610.94128	-728.14441	-30.91685	498.26382	685.77850	-42.23331	600.12280	-3.46239	1391.52869	-826.49573	
2657	26.560	-797.58759	70.07484	-633.85504	772.93042	67.85476	-611.08264	-728.25732	-30.70293	498.18719	685.75330	-41.21197	600.75323	-3.60227	1391.01587	-827.18762	
2658	26.570	-797.70618	69.80602	-633.95508	772.89783	67.35577	-611.27655	-728.30652	-30.42720	498.10934	685.83551	-40.85672	600.64020	-3.46196	1390.56274	-828.22314	
2659	26.580	-797.75018	69.49487	-634.21722	772.81494	67.05693	-611.36218	-728.39899	-29.99128	498.12250	685.78143	-40.55636	600.55157	-3.78293	1389.97839	-829.16589	
2660	26.590	-797.86053	69.06484	-634.48639	772.82819	66.78315	-611.44604	-728.50122	-29.66264	498.03036	685.78027	-40.16098	600.43549	-3.50716	1389.45886	-830.42566	
2661	26.600	-797.95459	68.50037	-634.37341	772.77649	66.31861	-611.58264	-728.57166	-29.36095	498.00793	685.72668	-39.83876	600.45551	-3.71306	1389.04822	-831.59570	
2662	26.610	-798.13397	67.99827	-634.29681	772.73785	65.82045	-611.76642	-728.63043	-29.09819	497.94263	685.73926	-39.44358	600.31006	-3.77018	1388.52185	-832.60657	
2663	26.620	-797.83325	67.47305	-634.48547	772.66339	65.45243	-611.86487	-728.63397	-28.81010	497.86673	684.80237	-39.87021	600.27197	-4.03330	1387.80652	-833.53625	
2664	26.630	-797.80548	66.95551	-634.68018	772.76257	64.97755	-611.99640	-728.59460	-28.43168	497.72604	685.50708	-38.95260	600.11395	-3.89665	1387.15344	-834.73157	
2665	26.640	-797.91101	66.29543	-634.86902	772.75598	64.50147	-612.18182	-728.62714	-28.14722	497.66180	685.65802	-38.25220	599.98450	-3.78245	1386.69275	-835.70618	
2666	26.650	-797.93140	65.89890	-635.04291	772.78320	64.00651	-612.34491	-728.72437	-27.58360	497.49295	685.74158	-37.83750	600.04572	-3.93998	1385.97754	-836.86023	
2667	26.660	-797.94037	65.59606	-635.27142	772.63593	63.43369	-612.53448	-728.64728	-27.03690	497.39465	685.70178	-37.60895	599.97778	-4.17567	1385.34180	-837.85004	
2668	26.670	-797.96173	65.03997	-635.57184	772.63141	62.83423	-612.75476	-728.65924	-26.69016	497.28015	685.25305	-37.10491	600.00415	-3.97840	1384.58264	-838.94708	
2669	26.680	-797.83521	64.29318	-635.80194	772.66168	62.33564	-613.03204	-728.73541	-26.19006	497.11609	685.45313	-36.32809	599.56476	-4.06253	1383.48962	-840.23944	
2670	26.690	-797.89508	64.03117	-636.04681	772.69623	61.72445	-613.26190	-728.61212	-25.78467	496.98230	685.49573	-36.03619	599.55518	-4.28237	1382.63928	-841.42816	
2671	26.700	-797.62140	63.16248	-635.90240	772.78552	61.09007	-613.40063	-728.66284	-25.47773	496.91116	685.72949	-35.44296	599.59161	-3.90072	1381.76245	-843.33514	
2672	26.710	-797.63190	62.37333	-636.40979	772.94208	60.41397	-613.59894	-728.50244	-25.16107	496.88300	685.77893	-34.84002	599.33661	-3.85373	1381.10486	-844.97937	
2673	26.720	-797.42285	61.62086	-636.63275	773.03406	59.69636	-613.74719	-728.31757	-24.68491	496.65836	685.75861	-34.49912	599.26929	-3.59859	1380.14014	-846.19019	
2674	26.730	-796.98987	60.78241	-637.15741	773.15643	59.00621	-613.95660	-728.13672	-24.04327	496.34631	686.01636	-34.18672	599.19659	-3.38813	1379.13660	-848.23248	
2675	26.740	-796.80164	60.67026	-637.01294	773.40643	58.41341	-614.21478	-727.82159	-23.72308	496.34326	686.49310	-33.20989	599.29791	-3.25621	1378.37183	-849.67200	
2676	26.750	-796.85962	59.96563	-637.60577	773.72766	57.72787	-614.44629	-727.59546	-23.17038	496.34341	686.30798	-32.85774	598.99927	-2.73733	1377.40747	-851.77460	
2677	26.760	-796.76361	58.99575	-637.61206	773.82440	57.01145	-614.65057	-727.26080	-22.69639	496.15799	686.59387	-32.29213	598.24683	-2.69812	1376.70129	-853.45416	
2678	26.770	-796.53052	58.25716	-637.62933	774.16272	56.19540	-614.85565	-727.06757	-22.14626	495.93130	686.95831	-31.21993	598.65814	-2.09897	1375.61377	-855.31030	
2679	26.780	-796.60083	57.77240	-638.02722	774.24103	55.39817	-615.13470	-727.00226	-21.61791	495.69110	687.15924	-30.59295	598.55530	-2.34631	1374.30518	-856.89233	
2680	26.790	-796.38544	56.89707	-638.34735	774.45416	54.64679	-615.41223	-726.69800	-21.14376	495.63538	687.52026	-29.92797	598.45978	-2.04366	1373.42871	-858.69653	
2681	26.800	-795.94824	55.94029	-638.64404	774.73096	53.89108	-615.61542	-726.33252	-20.45293	495.56906	687.67474	-29.18281	598.22455	-1.97185	1372.14209	-860.08875	
2682	26.810	-795.54144	55.17816	-638.97668	774.96240	53.05689	-615.92932	-726.26971	-19.92044	495.49432	687.80908	-28.68265	597.95087	-1.66073	1371.25977	-862.17487	
2683	26.820	-795.18756	54.08556	-639.01013	775.35431	52.21921	-616.08057	-726.03296	-19.35096	495.25830	688.17206	-27.87655	597.78784	-1.43813	1369.87024	-863.78156	
2684	26.830	-794.91962	53.34201	-639.13507	775.59210	51.36290	-616.36792	-725.68823	-18.60195	495.14969	688.66541	-27.04297	597.57520	-0.91250	1368.88928	-866.05646	
2685	26.840	-794.62714	52.39675	-639.25043	775.88275	50.47208	-616.65027	-725.56305	-18.06349	494.94934	688.85437	-26.64465	597.50854	-0.87265	1367.51428	-867.90259	
